<svg xmlns="http://www.w3.org/2000/svg" viewBox="0 0 512 512">
  <defs>
    <linearGradient id="background" x1="64" y1="48" x2="448" y2="464" gradientUnits="userSpaceOnUse">
      <stop stop-color="#60a5fa"/>
      <stop offset="1" stop-color="#2563eb"/>
    </linearGradient>
  </defs>
  <rect width="512" height="512" rx="112" fill="url(#background)"/>
  <path d="M146 171c0-30 24-54 54-54 23 0 43 14 51 34 9-20 29-34 52-34 30 0 54 24 54 54 0 5-1 10-2 15 22 11 37 34 37 60 0 25-14 47-35 59 1 5 2 10 2 16 0 31-25 56-56 56-22 0-41-13-50-32-9 19-29 32-51 32-31 0-56-25-56-56 0-6 1-12 3-17-21-12-35-34-35-59 0-26 15-49 38-60-4-5-6-9-6-14Z" fill="none" stroke="#fff" stroke-width="28" stroke-linecap="round" stroke-linejoin="round"/>
  <path d="M252 153v191M173 219h79M252 281h83" fill="none" stroke="#fff" stroke-width="24" stroke-linecap="round"/>
  <circle cx="173" cy="219" r="15" fill="#fff"/>
  <circle cx="335" cy="281" r="15" fill="#fff"/>
</svg>
